# xmcd
#
# Track frame offsets:
#	150
#	10690
#	21045
#	30440
#	39672
#	49755
#	59610
#	70677
#	79595
#	89380
#	98537
#	108385
#	118205
#	129980
#	138745
#	151592
#	161727
#	173922
#	183367
#	192825
#	202465
#	211457
#	220697
#	230487
#	240340
#
# Disc length: 3333 seconds
#
# Revision: 1
# Processed by: cddbd v1.5PL3 Copyright (c) Steve Scherf et al.
# Submitted via: EasyCDDAExtractor 7.0.4.1
#
DISCID=520d0319
DTITLE=Jim Reeves - Gentleman Jim - 1955-1959 - Disc 03
DYEAR=1989
DGENRE=Country and Western
TTITLE0=He'll Have To Go
TTITLE1=In A Mansion Stands My Love
TTITLE2=Billy Bayou
TTITLE3=I'd Like To Be
TTITLE4=Partners
TTITLE5=I'm Beginning To Forget You
TTITLE6=If Heartache Is The Fashion
TTITLE7=Home
TTITLE8=After Awhile
TTITLE9=Overnight
TTITLE10=Blue Boy
TTITLE11=Charmaine
TTITLE12=Mona Lisa
TTITLE13=Marie
TTITLE14=Goodnight Irene
TTITLE15=Linda
TTITLE16=Maria Alena
TTITLE17=My Mary
TTITLE18=Ramona
TTITLE19=Margie
TTITLE20=My Juanita
TTITLE21=Sweet Sue, Just You
TTITLE22=Snowflake
TTITLE23=But You Love Me Daddy (Steve Moore)
TTITLE24=But You Love Me Daddy (Dottie Dillard)
EXTD=
EXTT0=
EXTT1=
EXTT2=
EXTT3=
EXTT4=
EXTT5=
EXTT6=
EXTT7=
EXTT8=
EXTT9=
EXTT10=
EXTT11=
EXTT12=
EXTT13=
EXTT14=
EXTT15=
EXTT16=
EXTT17=
EXTT18=
EXTT19=
EXTT20=
EXTT21=
EXTT22=
EXTT23=
EXTT24=
PLAYORDER=
